<svg width="400" height="300" viewBox="0 0 400 300" fill="none" xmlns="http://www.w3.org/2000/svg">
<path opacity="0.45" d="M202.51 263.93C300.657 263.93 380.22 256.829 380.22 248.07C380.22 239.311 300.657 232.21 202.51 232.21C104.364 232.21 24.8 239.311 24.8 248.07C24.8 256.829 104.364 263.93 202.51 263.93Z" fill="#E6E6E6"/>
<path d="M99.82 203.27H40.29V246.42H99.82V203.27Z" fill="#E6E6E6"/>
<path opacity="0.45" d="M106.11 167.25H56.63V203.11H106.11V167.25Z" fill="#E6E6E6"/>
<path d="M343.89 172.88H334.81V170.88H343.89C344.207 170.881 344.522 170.82 344.815 170.7C345.109 170.579 345.376 170.402 345.601 170.178C345.825 169.954 346.004 169.688 346.126 169.395C346.247 169.102 346.31 168.787 346.31 168.47V162C346.31 161.358 346.055 160.743 345.601 160.289C345.147 159.835 344.532 159.58 343.89 159.58H334.81V157.58H343.89C345.062 157.58 346.187 158.046 347.015 158.875C347.844 159.704 348.31 160.828 348.31 162V168.5C348.3 169.665 347.829 170.779 347.001 171.6C346.174 172.42 345.055 172.88 343.89 172.88Z" fill="#FFD200"/>
<path opacity="0.46" d="M343.89 172.88H334.81V170.88H343.89C344.207 170.881 344.522 170.82 344.815 170.7C345.109 170.579 345.376 170.402 345.601 170.178C345.825 169.954 346.004 169.688 346.126 169.395C346.247 169.102 346.31 168.787 346.31 168.47V162C346.31 161.358 346.055 160.743 345.601 160.289C345.147 159.835 344.532 159.58 343.89 159.58H334.81V157.58H343.89C345.062 157.58 346.187 158.046 347.015 158.875C347.844 159.704 348.31 160.828 348.31 162V168.5C348.3 169.665 347.829 170.779 347.001 171.6C346.174 172.42 345.055 172.88 343.89 172.88Z" fill="white"/>
<path d="M346.86 220.42H315.11V224.5H346.86V220.42Z" fill="#ADADAD"/>
<path d="M95.73 219.86L91.85 246.43H101.33L107.8 219.86H95.73Z" fill="#C9C9C9"/>
<path d="M273.79 219.86L277.67 246.43H268.19L261.72 219.86H273.79Z" fill="#C9C9C9"/>
<path d="M76.88 197.44L79.45 211.05C80.2727 215.413 82.5936 219.352 86.0116 222.186C89.4296 225.019 93.7301 226.57 98.17 226.57H270.86C276.478 226.569 281.937 224.702 286.38 221.263C290.823 217.825 293.999 213.008 295.41 207.57L298.06 197.41L76.88 197.44Z" fill="#ADADAD"/>
<path d="M85.06 186.49L78.68 191.19C77.7794 191.857 77.1108 192.789 76.7685 193.856C76.4262 194.923 76.4275 196.07 76.7721 197.136C77.1168 198.203 77.7875 199.134 78.6896 199.798C79.5917 200.463 80.6797 200.827 81.8 200.84L291.1 203.1C292.481 203.121 293.838 202.732 294.999 201.983C296.159 201.234 297.073 200.158 297.623 198.891C298.174 197.624 298.337 196.223 298.093 194.863C297.849 193.503 297.207 192.246 296.25 191.25L291.72 186.49H85.06Z" fill="#C9C9C9"/>
<path d="M85.0601 186.49C85.0601 186.49 63.3301 117.09 112 112.78C151.82 109.25 242.23 111.5 273.68 112.43C284.11 112.74 293.59 118.79 297.68 128.16C302.6 139.43 304.36 157.86 291.78 186.49H85.0601Z" fill="#E6E6E6"/>
<path d="M134 230.08C134 230.08 134.61 233.7 132 235.45C129.39 237.2 130.19 240.26 133 239.59C135.81 238.92 140.39 232.24 140.39 232.24L138.01 228.41L134 230.08Z" fill="#F25F4C"/>
<path d="M76.5 85.4802C89.9812 85.4802 100.91 74.5514 100.91 61.0702C100.91 47.5889 89.9812 36.6602 76.5 36.6602C63.0187 36.6602 52.09 47.5889 52.09 61.0702C52.09 74.5514 63.0187 85.4802 76.5 85.4802Z" fill="#E6E6E6"/>
<path d="M76.4999 77.4996C85.574 77.4996 92.9299 70.1437 92.9299 61.0696C92.9299 51.9956 85.574 44.6396 76.4999 44.6396C67.4259 44.6396 60.0699 51.9956 60.0699 61.0696C60.0699 70.1437 67.4259 77.4996 76.4999 77.4996Z" fill="#F2F2F2"/>
<path d="M76.5 49.7002V61.0702L81.04 64.9202" stroke="#A5A5A5" stroke-width="2" stroke-linecap="round" stroke-linejoin="round"/>
<path d="M179.52 96.7498C179.52 96.7498 137.23 92.2698 138.83 114.63C140.43 136.99 164.13 184.63 164.13 184.63H216.05C216.05 184.63 262.68 123.27 243.51 103.83C224.34 84.3898 212.75 102 179.52 96.7498Z" fill="#F25F4C"/>
<path d="M180 98.6199C180 98.6199 174.54 113.5 183.88 116.51C193.22 119.52 198.39 107.71 195.8 101.51C193.21 95.3099 180 98.6199 180 98.6199Z" fill="#F4A28C"/>
<path opacity="0.08" d="M164.46 126.33C164.46 126.33 159.31 168.7 185.64 172.88C211.97 177.06 224.13 173.15 224.13 173.15L216.05 184.67L163.39 183.16C163.39 183.16 147.45 148.31 146.62 144.16C145.79 140.01 164.46 126.33 164.46 126.33Z" fill="black"/>
<path opacity="0.08" d="M180 98.6199C180 98.6199 174.54 113.5 183.88 116.51C193.22 119.52 198.39 107.71 195.8 101.51C193.21 95.3099 180 98.6199 180 98.6199Z" fill="black"/>
<path d="M181 97.0802C181.295 98.9649 181.485 100.864 181.57 102.77C181.65 105.39 182.49 109.27 186.62 110.04C192.98 111.22 194.62 101.15 194.62 101.15C194.62 101.15 198.62 91.7102 191.74 90.4202C185.59 89.2502 179.73 88.4202 181 97.0802Z" fill="#F4A28C"/>
<path d="M194.28 101.56C194.28 101.56 194.64 98.5 197.28 98.63C199.92 98.76 198.93 104.47 194.28 101.56Z" fill="#F4A28C"/>
<path d="M182.53 99.8505C182.53 99.8505 183.47 96.9205 180.99 95.9305C178.51 94.9405 177.1 100.58 182.53 99.8505Z" fill="#F4A28C"/>
<path d="M165.82 111.88C164.707 109.576 163.127 107.529 161.179 105.869C159.232 104.208 156.961 102.972 154.51 102.237C152.058 101.503 149.481 101.286 146.942 101.602C144.403 101.917 141.957 102.758 139.76 104.07C127.06 111.57 111.51 127.69 112.53 161.46C114.02 210.22 182.71 176.54 182.71 176.54L180.15 169.23C180.15 169.23 129.28 185.16 138.79 157.16C146.75 133.7 175.24 131.9 165.82 111.88Z" fill="#F4A28C"/>
<path d="M165.79 183.17L216.05 184.67C216.05 184.67 251.48 187.96 251.91 200.67C252.25 210.72 209.46 204.87 191.56 201.99C182.653 200.512 173.553 200.637 164.69 202.36C150.69 205.14 136.45 200.89 140.26 229.43L132.78 231.26C132.78 231.26 113.07 182.68 165.79 183.17Z" fill="#1D1F24"/>
<path d="M205.12 166.06H187.12C185.507 166.06 184.2 167.367 184.2 168.98V172.76C184.2 174.372 185.507 175.68 187.12 175.68H205.12C206.733 175.68 208.04 174.372 208.04 172.76V168.98C208.04 167.367 206.733 166.06 205.12 166.06Z" fill="#FFD200"/>
<path d="M180.15 169.23C180.15 169.23 182.4 161.75 184.91 161.68C187.42 161.61 191.15 161.54 190.54 164.34C189.93 167.14 185.27 165.72 185.78 167.64C186.29 169.56 191.45 168.79 194.03 170.73C196.61 172.67 197.03 177.91 182.71 176.54L180.15 169.23Z" fill="#F4A28C"/>
<path d="M213.51 110.25C214.064 107.753 215.131 105.4 216.644 103.338C218.156 101.276 220.08 99.5505 222.295 98.2717C224.509 96.9929 226.965 96.1883 229.507 95.9091C232.049 95.6299 234.621 95.8822 237.06 96.6498C251.15 101.03 270 113.13 276.78 146.23C286.57 194 212 177.07 212 177.07L212.8 169.36C212.8 169.36 265.97 173.15 250.27 148.09C237.09 127.1 209 131.91 213.51 110.25Z" fill="#F4A28C"/>
<path d="M212.77 169.36C212.77 169.36 208.86 162.6 206.4 163.11C203.94 163.62 200.3 164.41 201.53 167C202.76 169.59 206.98 167.13 206.93 169.11C206.88 171.09 201.67 171.54 199.6 174.02C197.53 176.5 198.36 181.69 211.97 177.02L212.77 169.36Z" fill="#F4A28C"/>
<path d="M191.81 197.44C191.81 197.44 183.41 205.19 186.21 208.44C189.01 211.69 194.28 202.44 194.28 202.44L191.81 197.44Z" fill="#F25F4C"/>
<path d="M313.79 184.67L309.79 246.43H313.79L322.29 184.67H313.79Z" fill="#C9C9C9"/>
<path d="M346.79 184.67L350.79 246.43H346.79L338.29 184.67H346.79Z" fill="#C9C9C9"/>
<path d="M350.79 176.77H309.79V186.49H350.79V176.77Z" fill="#E6E6E6"/>
<path d="M339.97 153H322.29V176.77H339.97V153Z" fill="#FFD200"/>
<path opacity="0.08" d="M331.35 170.42C334.272 170.42 336.64 167.77 336.64 164.5C336.64 161.231 334.272 158.58 331.35 158.58C328.428 158.58 326.06 161.231 326.06 164.5C326.06 167.77 328.428 170.42 331.35 170.42Z" fill="black"/>
<path d="M325 153C325 153 322.5 144.67 329.16 143.83C335.82 142.99 345 144.67 341.58 134.67C338.16 124.67 333.66 126.83 338.66 115.5C343.66 104.17 356.83 124.33 361.66 113.67C366.49 103.01 373.16 106.67 379.83 111.92C386.5 117.17 387.83 133.5 374.66 136C361.49 138.5 358.83 141.35 356.16 148.68C353.49 156.01 340 153 340 153H325Z" fill="#E6E6E6"/>
<path d="M178.45 93.0801C178.45 93.0801 174.89 84.6201 182.45 82.0801C182.45 82.0801 179.45 84.0801 180.94 92.9901L178.45 93.0801Z" fill="#FFD200"/>
<path d="M198.32 96.7701C198.32 96.7701 202.32 85.6901 192.82 81.8301C192.82 81.8301 199.17 86.7501 195.82 96.4301L198.32 96.7701Z" fill="#FFD200"/>
<path opacity="0.08" d="M178.45 93.0801C178.45 93.0801 174.89 84.6201 182.45 82.0801C182.45 82.0801 179.45 84.0801 180.94 92.9901L178.45 93.0801Z" fill="black"/>
<path opacity="0.08" d="M198.32 96.7701C198.32 96.7701 202.32 85.6901 192.82 81.8301C192.82 81.8301 199.17 86.7501 195.82 96.4301L198.32 96.7701Z" fill="black"/>
<path d="M181 93.88C181 93.88 186.19 94.88 189.6 91.04C189.6 91.04 193.16 97.11 195.67 97.28C195.67 97.28 197.44 93.12 197.36 90.5C197.28 87.88 200.31 87.58 199.19 84.37C198.07 81.16 195.36 80.37 192.84 81.83C192.84 81.83 194.15 79.42 191.73 78.92C189.31 78.42 182.43 82 182.43 82C182.43 82 178.64 84.63 181 93.88Z" fill="#1D1F24"/>
<path d="M195.79 103.25C195.79 103.25 194.29 108.79 189.04 107.36V106C189.04 106 192.77 107.52 194.49 102.38L195.79 103.25Z" fill="#FFD200"/>
<path d="M176.27 93.81C175.5 96.54 175.35 100.81 181.5 101.48L180.92 93C180.895 92.6065 180.72 92.2374 180.432 91.9681C180.144 91.6987 179.764 91.5492 179.37 91.55C178.679 91.5427 178.004 91.7587 177.445 92.1659C176.887 92.5731 176.475 93.1497 176.27 93.81V93.81Z" fill="#FFD200"/>
<path d="M200.48 97.2598C200.81 100.07 200.3 104.26 194.12 104.02L196.02 95.6798C196.109 95.2978 196.338 94.9632 196.662 94.7427C196.987 94.5221 197.382 94.4318 197.77 94.4898V94.4898C198.461 94.5947 199.099 94.9218 199.588 95.4215C200.077 95.9212 200.39 96.5665 200.48 97.2598V97.2598Z" fill="#FFD200"/>
<path d="M188.24 108.13C189.107 108.13 189.81 107.427 189.81 106.56C189.81 105.693 189.107 104.99 188.24 104.99C187.373 104.99 186.67 105.693 186.67 106.56C186.67 107.427 187.373 108.13 188.24 108.13Z" fill="#FFD200"/>
<path opacity="0.46" d="M188.24 108.13C189.107 108.13 189.81 107.427 189.81 106.56C189.81 105.693 189.107 104.99 188.24 104.99C187.373 104.99 186.67 105.693 186.67 106.56C186.67 107.427 187.373 108.13 188.24 108.13Z" fill="white"/>
<path d="M241.37 72.3804C259.778 72.3804 274.7 59.9608 274.7 44.6404C274.7 29.32 259.778 16.9004 241.37 16.9004C222.962 16.9004 208.04 29.32 208.04 44.6404C208.04 59.9608 222.962 72.3804 241.37 72.3804Z" fill="#1D1F24"/>
<path d="M218.13 57.3096L206.25 77.4996L225.79 62.9996L218.13 57.3096Z" fill="#1D1F24"/>
<path d="M228.24 48.7503C230.51 48.7503 232.35 46.9102 232.35 44.6403C232.35 42.3704 230.51 40.5303 228.24 40.5303C225.97 40.5303 224.13 42.3704 224.13 44.6403C224.13 46.9102 225.97 48.7503 228.24 48.7503Z" fill="#F25F4C"/>
<path d="M241.45 48.7503C243.72 48.7503 245.56 46.9102 245.56 44.6403C245.56 42.3704 243.72 40.5303 241.45 40.5303C239.18 40.5303 237.34 42.3704 237.34 44.6403C237.34 46.9102 239.18 48.7503 241.45 48.7503Z" fill="#F25F4C"/>
<path d="M254.5 48.7503C256.77 48.7503 258.61 46.9102 258.61 44.6403C258.61 42.3704 256.77 40.5303 254.5 40.5303C252.23 40.5303 250.39 42.3704 250.39 44.6403C250.39 46.9102 252.23 48.7503 254.5 48.7503Z" fill="#F25F4C"/>
<path d="M218.173 168.705L213.167 168.329L212.386 178.72L217.392 179.096L218.173 168.705Z" fill="#F25F4C"/>
<path opacity="0.46" d="M218.173 168.705L213.167 168.329L212.386 178.72L217.392 179.096L218.173 168.705Z" fill="white"/>
</svg>
